<svg id="Layer_1" data-name="Layer 1" xmlns="http://www.w3.org/2000/svg" viewBox="0 0 170.08 170.08"><defs><style>.cls-1{fill:#1a1b3a;}.cls-2{fill:#0180a1;}.cls-3{fill:#3eb7b1;}</style></defs><path class="cls-1" d="M151.82,55.74H130.61l-.41,0A45.37,45.37,0,0,0,85,14.33l-66.82-.07a4.11,4.11,0,0,0-4.1,4.1V59.84a4.11,4.11,0,0,0,4.1,4.1H39.41a3.11,3.11,0,0,0,.43,0,45.37,45.37,0,0,0,44.54,41.14l67.44,0a4.11,4.11,0,0,0,4.1-4.1V59.84a4.11,4.11,0,0,0-4.1-4.1M85,18.65h.66a41.2,41.2,0,0,1,39.09,52h0a5.08,5.08,0,0,1-3.56,1.47A5.13,5.13,0,0,1,116.07,67V64s0-.05,0-.07V52.71a9.36,9.36,0,1,0-18.72,0V64.19s0,0,0,.09V67a5.1,5.1,0,1,1-10.2,0V52.71a9.36,9.36,0,1,0-18.72,0V64.19s0,.06,0,.09V67a5.1,5.1,0,1,1-10.2,0V65.31s0,0,0-.08V52.71a9.38,9.38,0,0,0-9.35-9.4h0a9.51,9.51,0,0,0-1.7.15A41.19,41.19,0,0,1,85,18.65M83,101A41.18,41.18,0,0,1,45.23,49.17a5,5,0,0,1,3.68-1.61A5.13,5.13,0,0,1,54,52.71v1.65s0,.06,0,.08V67a9.36,9.36,0,1,0,18.72,0V56.86s0-.06,0-.09V52.71a5.11,5.11,0,1,1,10.21,0V63.93h0v3a9.36,9.36,0,1,0,18.71,0V56.86s0-.06,0-.09V52.71a5.11,5.11,0,1,1,10.21,0V53s0,.05,0,.08V67A9.4,9.4,0,0,0,120,76.29a9,9,0,0,0,2.83-.07A41.19,41.19,0,0,1,85,101c-.69,0-1.38,0-2.05,0"/><path class="cls-2" d="M122.8,76.22A41.19,41.19,0,0,1,85,101c-.69,0-1.38,0-2.05,0A41.21,41.21,0,0,1,45.22,49.17a5.05,5.05,0,0,1,3.69-1.61A5.13,5.13,0,0,1,54,52.71v1.65s0,.06,0,.08V67a9.36,9.36,0,1,0,18.72,0V56.86s0-.06,0-.09V52.71a5.11,5.11,0,1,1,10.21,0V63.93h0v3a9.36,9.36,0,1,0,18.71,0V56.86s0-.06,0-.09V52.71a5.11,5.11,0,1,1,10.21,0V53s0,.05,0,.08V67A9.4,9.4,0,0,0,120,76.29a9,9,0,0,0,2.83-.07"/><path class="cls-3" d="M126.19,59.84a41.1,41.1,0,0,1-1.43,10.77h0A5.09,5.09,0,0,1,116.07,67V64s0-.05,0-.08V52.71a9.36,9.36,0,1,0-18.72,0V64.19s0,0,0,.09V67a5.1,5.1,0,1,1-10.2,0V52.71a9.36,9.36,0,1,0-18.72,0V64.19s0,.06,0,.09V67a5.1,5.1,0,1,1-10.2,0V65.31s0,0,0-.08V52.71a9.4,9.4,0,0,0-9.36-9.41h0a9.51,9.51,0,0,0-1.7.16A41.19,41.19,0,0,1,85,18.65h.66a41.18,41.18,0,0,1,40.52,41.18"/><path class="cls-3" d="M39.68,59.68a45.33,45.33,0,0,1,26.7-41.32H19.18a1,1,0,0,0-1,1v39.5a1,1,0,0,0,1,1h20.5v-.16"/><path class="cls-2" d="M130.39,59.84a45.29,45.29,0,0,1-26.69,41.31h47.2a1,1,0,0,0,1-1V60.67a1,1,0,0,0-1-1H130.39v.16"/><path class="cls-1" d="M135.27,148.69V128.32h4.94a6.88,6.88,0,0,1,4.92,1.58,6.8,6.8,0,0,1,1.76,4.9c.07.92.1,2.14.1,3.66s0,2.75-.1,3.71q-.1,3.41-1.63,5a6.52,6.52,0,0,1-4.8,1.55Zm-7.67,7.12h13.11q7.32,0,11.15-3.33t4.08-10.21c0-.93.05-2.18.05-3.76s0-2.85-.05-3.81q-.19-6.58-4.2-10t-11.28-3.46H127.6a1.22,1.22,0,0,0-.86.34,1.18,1.18,0,0,0-.37.9v32.14a1.15,1.15,0,0,0,.37.86,1.17,1.17,0,0,0,.86.37m-36.91,0h5.94a1.16,1.16,0,0,0,.89-.37,1.2,1.2,0,0,0,.34-.86v-18l12.07,18.3a1.77,1.77,0,0,0,1.63.93h5.29a1.14,1.14,0,0,0,.89-.37,1.28,1.28,0,0,0,.35-.91V122.44a1.24,1.24,0,0,0-.35-.9,1.19,1.19,0,0,0-.89-.34h-5.93a1.24,1.24,0,0,0-.87.34,1.21,1.21,0,0,0-.37.9v18.69l-12.06-19a1.68,1.68,0,0,0-1.68-.94H90.69a1.22,1.22,0,0,0-.86.34,1.18,1.18,0,0,0-.37.9v32.14a1.15,1.15,0,0,0,.37.86,1.17,1.17,0,0,0,.86.37m-33.09,0H81.09a1.16,1.16,0,0,0,.89-.37,1.2,1.2,0,0,0,.34-.86v-4.65a1.18,1.18,0,0,0-1.23-1.24H64.92v-6.87H79.6a1.16,1.16,0,0,0,.89-.37,1.25,1.25,0,0,0,.35-.87v-4.3a1.28,1.28,0,0,0-.35-.91,1.16,1.16,0,0,0-.89-.37H64.92v-6.68H80.69a1.16,1.16,0,0,0,.89-.37,1.25,1.25,0,0,0,.35-.87v-4.64a1.24,1.24,0,0,0-.35-.9,1.21,1.21,0,0,0-.89-.34H57.6a1.24,1.24,0,0,0-.87.34,1.18,1.18,0,0,0-.37.9v32.14a1.15,1.15,0,0,0,.37.86,1.19,1.19,0,0,0,.87.37m-42.27,0h5.93a1.16,1.16,0,0,0,.89-.37,1.21,1.21,0,0,0,.35-.86V136l5.58,10.34a2.57,2.57,0,0,0,.7.84,1.66,1.66,0,0,0,1,.3h2.58a1.94,1.94,0,0,0,1.73-1.14L39.66,136v18.55a1.16,1.16,0,0,0,.37.89,1.27,1.27,0,0,0,.91.34h5.89a1.29,1.29,0,0,0,.91-.34,1.16,1.16,0,0,0,.37-.89V122.44a1.18,1.18,0,0,0-.37-.9,1.29,1.29,0,0,0-.91-.34h-5.3a1.81,1.81,0,0,0-1.73,1.09l-8.7,15.57-8.7-15.57a1.81,1.81,0,0,0-1.73-1.09H15.33a1.24,1.24,0,0,0-.87.34,1.18,1.18,0,0,0-.37.9v32.14a1.15,1.15,0,0,0,.37.86,1.19,1.19,0,0,0,.87.37"/></svg>