<svg id="Layer_1" data-name="Layer 1" xmlns="http://www.w3.org/2000/svg" viewBox="0 0 369.08 170.23"><defs><style>.cls-1{fill:#1a1c3a;}.cls-2{fill:#00a0a2;}.cls-3{fill:#00799e;}.cls-4{fill:#1a1b3a;}</style></defs><path class="cls-1" d="M119.27,50.54A41.11,41.11,0,0,0,78.33,13L16.2,13a2.1,2.1,0,0,0-2.11,2.11V55.86A2.11,2.11,0,0,0,16.2,58H37.42A41.1,41.1,0,0,0,78.33,95.22l62.13,0a2.11,2.11,0,0,0,2.12-2.11V52.65a2.12,2.12,0,0,0-2.12-2.11Z"/><path class="cls-2" d="M17.8,17.71V53.17a1.06,1.06,0,0,0,1.06,1.06H37A41.43,41.43,0,0,1,61.17,16.65H18.86a1.05,1.05,0,0,0-1.06,1.06"/><path class="cls-3" d="M112.57,69.07a8,8,0,0,1-1.47.14,8.51,8.51,0,0,1-8.48-8.52V48.14s0,0,0-.07v-.3a4.62,4.62,0,1,0-9.24,0V60.69a8.48,8.48,0,1,1-17,0V57.94h0V47.77a4.63,4.63,0,1,0-9.25,0v3.68a.19.19,0,0,1,0,.08v9.16a8.48,8.48,0,1,1-17,0V47.77a4.65,4.65,0,0,0-4.62-4.67,4.6,4.6,0,0,0-3.34,1.46,37.32,37.32,0,0,0,70.28,24.51"/><path class="cls-2" d="M45.63,39.25a8.51,8.51,0,0,1,8.48,8.52V59.12s0,0,0,.07v1.5a4.62,4.62,0,1,0,9.24,0V47.77a8.48,8.48,0,1,1,17,0v.36h0V60.69a4.63,4.63,0,1,0,9.25,0V58.25a.28.28,0,0,1,0-.09V47.77a8.48,8.48,0,1,1,17,0V60.69a4.64,4.64,0,0,0,4.62,4.66A4.58,4.58,0,0,0,114.34,64,37.31,37.31,0,0,0,44.09,39.39a8.73,8.73,0,0,1,1.54-.14"/><path class="cls-3" d="M119.64,54.23A41.54,41.54,0,0,1,96.13,91.51h41.68a1.06,1.06,0,0,0,1.06-1.05V55.28a1.06,1.06,0,0,0-1.06-1.05Z"/><path class="cls-4" d="M327.87,86V59.6h6.44q4.26,0,6.42,2T343,68c.08,1.2.13,2.78.13,4.74s0,3.58-.13,4.82c-.09,3-.8,5.09-2.13,6.44s-3.42,2-6.26,2Zm-10,9.23H335q9.54,0,14.54-4.33t5.32-13.24c0-1.19.06-2.82.06-4.87s0-3.7-.06-4.94q-.27-8.52-5.48-13t-14.71-4.49H317.87a1.62,1.62,0,0,0-1.13.45,1.52,1.52,0,0,0-.48,1.16V93.65a1.53,1.53,0,0,0,.48,1.12,1.57,1.57,0,0,0,1.13.48m-48.12,0h7.74a1.54,1.54,0,0,0,1.16-.48,1.58,1.58,0,0,0,.45-1.12V70.31L294.83,94A2.3,2.3,0,0,0,297,95.25h6.9a1.52,1.52,0,0,0,1.16-.48,1.65,1.65,0,0,0,.45-1.18V52a1.54,1.54,0,0,0-1.61-1.61h-7.74a1.6,1.6,0,0,0-1.13.45,1.52,1.52,0,0,0-.48,1.16V76.21L278.78,51.58a2.21,2.21,0,0,0-2.2-1.22h-6.83a1.6,1.6,0,0,0-1.13.45,1.52,1.52,0,0,0-.48,1.16V93.65a1.53,1.53,0,0,0,.48,1.12,1.55,1.55,0,0,0,1.13.48m-43.15,0h30.62a1.51,1.51,0,0,0,1.16-.48,1.59,1.59,0,0,0,.46-1.12v-6a1.56,1.56,0,0,0-1.62-1.6H236.14V77.11h19.15a1.5,1.5,0,0,0,1.16-.49,1.58,1.58,0,0,0,.45-1.12V69.92a1.65,1.65,0,0,0-.45-1.18,1.52,1.52,0,0,0-1.16-.48H236.14V59.6h20.57a1.52,1.52,0,0,0,1.16-.48,1.6,1.6,0,0,0,.45-1.12V52a1.54,1.54,0,0,0-1.61-1.61H226.6a1.6,1.6,0,0,0-1.13.45A1.52,1.52,0,0,0,225,52V93.65a1.53,1.53,0,0,0,.48,1.12,1.55,1.55,0,0,0,1.13.48m-55.11,0h7.73a1.56,1.56,0,0,0,1.17-.48,1.62,1.62,0,0,0,.45-1.12V69.6L188.12,83a3.37,3.37,0,0,0,.9,1.1,2.28,2.28,0,0,0,1.36.38h3.35A2.53,2.53,0,0,0,196,83l7.22-13.4V93.65a1.49,1.49,0,0,0,.48,1.15,1.64,1.64,0,0,0,1.19.45h7.68a1.64,1.64,0,0,0,1.19-.45,1.49,1.49,0,0,0,.48-1.15V52a1.52,1.52,0,0,0-.48-1.16,1.68,1.68,0,0,0-1.19-.45h-6.9a2.39,2.39,0,0,0-2.26,1.42L192.05,72l-11.34-20.2a2.39,2.39,0,0,0-2.26-1.42h-7a1.6,1.6,0,0,0-1.13.45,1.53,1.53,0,0,0-.49,1.16V93.65a1.66,1.66,0,0,0,1.62,1.6"/><path class="cls-4" d="M24.76,137l6.39-12.2h4.24l-8.69,16v10.12H22.79v-10l-8.7-16.11h4.27Z"/><path class="cls-4" d="M54,141.05q0,4.9-2.52,7.56a8.91,8.91,0,0,1-6.8,2.67,9.24,9.24,0,0,1-4.73-1.2,8.45,8.45,0,0,1-3.25-3.49,11.93,11.93,0,0,1-1.19-5.54c0-3.26.83-5.78,2.49-7.54a8.84,8.84,0,0,1,6.79-2.65A9.43,9.43,0,0,1,49.55,132a8.37,8.37,0,0,1,3.25,3.46A11.86,11.86,0,0,1,54,141.05Zm-14.51,0a9.18,9.18,0,0,0,1.26,5.19,4.51,4.51,0,0,0,4,1.86,4.49,4.49,0,0,0,4-1.86A9.18,9.18,0,0,0,50,141.05a8.91,8.91,0,0,0-1.28-5.17,4.59,4.59,0,0,0-4-1.81,4.48,4.48,0,0,0-4,1.81A9.08,9.08,0,0,0,39.48,141.05Z"/><path class="cls-4" d="M75.84,131.22v19.7H72.73l-.54-2.6H72a5.56,5.56,0,0,1-2.63,2.25,9.06,9.06,0,0,1-3.54.71,7.43,7.43,0,0,1-5.3-1.72c-1.22-1.14-1.83-3-1.83-5.44v-12.9h3.91v12.32q0,4.56,4,4.56c2,0,3.42-.59,4.2-1.79A9.33,9.33,0,0,0,72,141.2v-10Z"/><path class="cls-4" d="M103,127.86a7.43,7.43,0,0,0-6.1,2.69,11.26,11.26,0,0,0-2.2,7.36,11.78,11.78,0,0,0,2,7.31q2,2.66,6.21,2.66a16.16,16.16,0,0,0,3.23-.31,28.49,28.49,0,0,0,3.17-.82v3.4a17.53,17.53,0,0,1-3.13.86,22.66,22.66,0,0,1-3.74.27,12.21,12.21,0,0,1-6.65-1.66,10.21,10.21,0,0,1-4-4.68,17.49,17.49,0,0,1-1.32-7.07,16,16,0,0,1,1.45-7,10.89,10.89,0,0,1,4.22-4.73,12.79,12.79,0,0,1,6.79-1.7,17.7,17.7,0,0,1,3.86.42,15.75,15.75,0,0,1,3.45,1.19l-1.46,3.29a21.72,21.72,0,0,0-2.76-1A10.33,10.33,0,0,0,103,127.86Z"/><path class="cls-4" d="M131.89,141.05q0,4.9-2.52,7.56a8.91,8.91,0,0,1-6.8,2.67,9.24,9.24,0,0,1-4.73-1.2,8.45,8.45,0,0,1-3.25-3.49,11.93,11.93,0,0,1-1.19-5.54c0-3.26.83-5.78,2.49-7.54a8.84,8.84,0,0,1,6.79-2.65,9.43,9.43,0,0,1,4.77,1.18,8.37,8.37,0,0,1,3.25,3.46A11.86,11.86,0,0,1,131.89,141.05Zm-14.51,0a9.18,9.18,0,0,0,1.26,5.19,5.24,5.24,0,0,0,8,0,9.18,9.18,0,0,0,1.26-5.19,8.91,8.91,0,0,0-1.28-5.17,4.6,4.6,0,0,0-4-1.81,4.48,4.48,0,0,0-4,1.81A9.08,9.08,0,0,0,117.38,141.05Z"/><path class="cls-4" d="M143.55,151.28a7.12,7.12,0,0,1-5.72-2.56q-2.18-2.55-2.18-7.6t2.2-7.67a7.94,7.94,0,0,1,9.42-1.75,7.49,7.49,0,0,1,2.3,2h.22c0-.31-.11-.8-.18-1.46a16.89,16.89,0,0,1-.11-1.75v-7.38h3.87v27.77h-3l-.66-2.63h-.18a6.91,6.91,0,0,1-2.26,2.13A7,7,0,0,1,143.55,151.28Zm.91-3.18q2.85,0,4-1.59a8,8,0,0,0,1.17-4.76v-.59a10.21,10.21,0,0,0-1.12-5.28c-.74-1.23-2.11-1.84-4.11-1.84a4,4,0,0,0-3.58,1.91,9.86,9.86,0,0,0-1.2,5.25,9.15,9.15,0,0,0,1.2,5.11A4.07,4.07,0,0,0,144.46,148.1Z"/><path class="cls-4" d="M167.19,130.86a7.92,7.92,0,0,1,6.1,2.39,9.23,9.23,0,0,1,2.23,6.52v2.12H162.29a6.77,6.77,0,0,0,1.59,4.64,5.58,5.58,0,0,0,4.26,1.61,15,15,0,0,0,3.38-.35,17.76,17.76,0,0,0,3-1V150a16.67,16.67,0,0,1-3,1,16.85,16.85,0,0,1-3.58.33,10.88,10.88,0,0,1-5.06-1.13,8.09,8.09,0,0,1-3.4-3.38,11.4,11.4,0,0,1-1.22-5.54,12.86,12.86,0,0,1,1.11-5.62,8.2,8.2,0,0,1,3.11-3.53A8.75,8.75,0,0,1,167.19,130.86Zm0,3a4.37,4.37,0,0,0-3.35,1.35,6.34,6.34,0,0,0-1.48,3.84h9.28a6.22,6.22,0,0,0-1.11-3.74A3.88,3.88,0,0,0,167.19,133.85Z"/><path class="cls-4" d="M179.79,148.76a2.49,2.49,0,0,1,.71-2,2.72,2.72,0,0,1,1.78-.58,2.79,2.79,0,0,1,1.77.58,2.4,2.4,0,0,1,.75,2,2.53,2.53,0,0,1-.75,2.05,2.71,2.71,0,0,1-1.77.62,2.33,2.33,0,0,1-2.49-2.67Z"/><path class="cls-4" d="M230.83,124.83,224,150.92h-4.21l-4.6-16.12c-.17-.58-.35-1.24-.53-2s-.35-1.42-.49-2.06-.25-1.11-.3-1.38c0,.27-.09.72-.21,1.36s-.28,1.32-.46,2.08-.36,1.45-.53,2.08l-4.53,16h-4.2l-6.84-26.09h4.06L205,140.25c.26,1,.51,2.15.73,3.3s.39,2.19.51,3.09c.12-.92.3-2,.55-3.18s.51-2.26.8-3.21l4.35-15.42h3.94l4.5,15.49c.29,1,.56,2.06.8,3.27s.43,2.22.55,3c.12-.88.3-1.9.53-3.07s.48-2.28.75-3.32l3.84-15.42Z"/><path class="cls-4" d="M241.25,130.86a7.92,7.92,0,0,1,6.1,2.39,9.18,9.18,0,0,1,2.23,6.52v2.12H236.35a6.77,6.77,0,0,0,1.59,4.64,5.58,5.58,0,0,0,4.26,1.61,14.94,14.94,0,0,0,3.38-.35,17.47,17.47,0,0,0,3-1V150a16.67,16.67,0,0,1-3,1,16.85,16.85,0,0,1-3.58.33,10.88,10.88,0,0,1-5.06-1.13,8.09,8.09,0,0,1-3.4-3.38,11.52,11.52,0,0,1-1.22-5.54,12.86,12.86,0,0,1,1.11-5.62,8.26,8.26,0,0,1,3.11-3.53A8.78,8.78,0,0,1,241.25,130.86Zm0,3a4.35,4.35,0,0,0-3.34,1.35,6.28,6.28,0,0,0-1.48,3.84h9.28a6.29,6.29,0,0,0-1.12-3.74A3.88,3.88,0,0,0,241.25,133.85Z"/><path class="cls-4" d="M275.48,127.86a7.45,7.45,0,0,0-6.1,2.69,11.31,11.31,0,0,0-2.19,7.36,11.71,11.71,0,0,0,2.05,7.31q2,2.66,6.21,2.66a16.16,16.16,0,0,0,3.23-.31,27.78,27.78,0,0,0,3.16-.82v3.4a17.2,17.2,0,0,1-3.12.86,22.7,22.7,0,0,1-3.75.27,12.24,12.24,0,0,1-6.65-1.66,10.19,10.19,0,0,1-3.94-4.68,17.49,17.49,0,0,1-1.32-7.07,16,16,0,0,1,1.45-7,10.83,10.83,0,0,1,4.22-4.73,12.79,12.79,0,0,1,6.79-1.7,17.7,17.7,0,0,1,3.86.42,15.75,15.75,0,0,1,3.45,1.19l-1.46,3.29a21.72,21.72,0,0,0-2.76-1A10.4,10.4,0,0,0,275.48,127.86Z"/><path class="cls-4" d="M304,131.22v19.7h-3.1l-.55-2.6h-.18a5.56,5.56,0,0,1-2.63,2.25,9.07,9.07,0,0,1-3.55.71,7.4,7.4,0,0,1-5.29-1.72c-1.22-1.14-1.83-3-1.83-5.44v-12.9h3.91v12.32q0,4.56,4,4.56c2,0,3.42-.59,4.2-1.79a9.33,9.33,0,0,0,1.17-5.11v-10Z"/><path class="cls-4" d="M319.77,130.86a11,11,0,0,1,1.11,0c.41,0,.75.08,1.05.13l-.41,3.62a7.55,7.55,0,0,0-2-.26,5.53,5.53,0,0,0-4.84,2.83,6.62,6.62,0,0,0-.79,3.31v10.38h-3.87v-19.7h3.07l.51,3.51h.15a9.61,9.61,0,0,1,2.45-2.72A5.61,5.61,0,0,1,319.77,130.86Z"/><path class="cls-4" d="M332.63,130.86a7.9,7.9,0,0,1,6.1,2.39,9.18,9.18,0,0,1,2.23,6.52v2.12H327.73a6.77,6.77,0,0,0,1.59,4.64,5.58,5.58,0,0,0,4.26,1.61,14.94,14.94,0,0,0,3.38-.35,17.47,17.47,0,0,0,3.05-1V150a15,15,0,0,1-6.57,1.31,10.89,10.89,0,0,1-5.07-1.13,8,8,0,0,1-3.39-3.38,11.4,11.4,0,0,1-1.23-5.54,12.71,12.71,0,0,1,1.12-5.62,8.18,8.18,0,0,1,3.1-3.53A8.78,8.78,0,0,1,332.63,130.86Zm0,3a4.35,4.35,0,0,0-3.34,1.35,6.28,6.28,0,0,0-1.48,3.84h9.28A6.29,6.29,0,0,0,336,135.3,3.87,3.87,0,0,0,332.63,133.85Z"/><path class="cls-4" d="M345.24,148.76a2.45,2.45,0,0,1,.71-2,2.69,2.69,0,0,1,1.77-.58,2.79,2.79,0,0,1,1.77.58,2.4,2.4,0,0,1,.75,2,2.53,2.53,0,0,1-.75,2.05,2.71,2.71,0,0,1-1.77.62,2.62,2.62,0,0,1-1.77-.62A2.59,2.59,0,0,1,345.24,148.76Z"/></svg>