<svg id="Layer_1" data-name="Layer 1" xmlns="http://www.w3.org/2000/svg" viewBox="0 0 369.08 114.99"><defs><style>.cls-1{fill:#1a1c3a;}.cls-2{fill:#00a0a2;}.cls-3{fill:#00799e;}.cls-4{fill:#fff;}</style></defs><path class="cls-1" d="M119.32,53.92A41.08,41.08,0,0,0,78.39,16.41l-62.13-.06a2.12,2.12,0,0,0-2.12,2.11V59.24a2.12,2.12,0,0,0,2.12,2.11H37.47A41.11,41.11,0,0,0,78.39,98.61l62.13,0a2.11,2.11,0,0,0,2.11-2.12V56a2.11,2.11,0,0,0-2.11-2.12Z"/><path class="cls-2" d="M17.86,21.09V56.56a1,1,0,0,0,1.05,1H37.08A41.43,41.43,0,0,1,61.22,20H18.91a1.06,1.06,0,0,0-1.05,1.06"/><path class="cls-3" d="M112.62,72.45a7.88,7.88,0,0,1-1.47.14,8.5,8.5,0,0,1-8.47-8.52V51.15a4.62,4.62,0,1,0-9.24,0v3.68s0,.06,0,.08v9.16a8.48,8.48,0,1,1-17,0V61.32h0V51.15a4.62,4.62,0,1,0-9.24,0v3.68s0,.06,0,.08v9.16a8.48,8.48,0,1,1-17,0V52.72s0,0,0-.07v-1.5a4.65,4.65,0,0,0-4.63-4.66,4.57,4.57,0,0,0-3.33,1.45,37.31,37.31,0,0,0,70.27,24.51"/><path class="cls-2" d="M45.69,42.63a8.5,8.5,0,0,1,8.47,8.52V64.07a4.62,4.62,0,1,0,9.24,0V61.63s0-.05,0-.08V51.15a8.48,8.48,0,1,1,17,0v.36h0V64.07a4.62,4.62,0,1,0,9.24,0V61.63s0-.05,0-.08V51.15a8.48,8.48,0,1,1,17,0V61.32s0,0,0,.07v2.68a4.65,4.65,0,0,0,4.63,4.66,4.59,4.59,0,0,0,3.24-1.34A37.31,37.31,0,0,0,44.15,42.78a7.81,7.81,0,0,1,1.54-.15"/><path class="cls-3" d="M119.7,57.61A41.55,41.55,0,0,1,96.19,94.9h41.67a1.05,1.05,0,0,0,1.06-1.06V58.67a1.05,1.05,0,0,0-1.06-1.06Z"/><path class="cls-4" d="M327.92,89.4V63h6.45c2.84,0,5,.69,6.41,2.05s2.2,3.49,2.29,6.35c.09,1.2.13,2.78.13,4.75s0,3.57-.13,4.81c-.09,3-.79,5.1-2.13,6.44s-3.41,2-6.25,2Zm-10,9.24H335q9.54,0,14.54-4.33t5.32-13.24c0-1.2.07-2.82.07-4.88s0-3.69-.07-4.94q-.25-8.52-5.48-13t-14.7-4.49H317.93a1.6,1.6,0,0,0-1.13.45,1.49,1.49,0,0,0-.49,1.15V97a1.68,1.68,0,0,0,1.62,1.61m-48.12,0h7.73a1.5,1.5,0,0,0,1.16-.49,1.56,1.56,0,0,0,.45-1.12V73.69l15.74,23.73A2.31,2.31,0,0,0,297,98.64h6.9a1.5,1.5,0,0,0,1.16-.49,1.64,1.64,0,0,0,.45-1.18V55.35a1.54,1.54,0,0,0-.45-1.15,1.58,1.58,0,0,0-1.16-.45h-7.74a1.62,1.62,0,0,0-1.13.45,1.49,1.49,0,0,0-.48,1.15V79.59L278.83,55a2.21,2.21,0,0,0-2.19-1.21h-6.83a1.59,1.59,0,0,0-1.13.45,1.49,1.49,0,0,0-.49,1.15V97a1.52,1.52,0,0,0,.49,1.12,1.51,1.51,0,0,0,1.13.49m-43.16,0h30.63a1.5,1.5,0,0,0,1.16-.49,1.56,1.56,0,0,0,.45-1.12V91a1.54,1.54,0,0,0-1.61-1.61H236.2V80.49h19.14A1.51,1.51,0,0,0,256.5,80a1.61,1.61,0,0,0,.46-1.12V73.31a1.69,1.69,0,0,0-.46-1.19,1.51,1.51,0,0,0-1.16-.48H236.2V63h20.56a1.52,1.52,0,0,0,1.16-.48,1.58,1.58,0,0,0,.45-1.12v-6a1.54,1.54,0,0,0-.45-1.15,1.58,1.58,0,0,0-1.16-.45H226.65a1.62,1.62,0,0,0-1.13.45,1.49,1.49,0,0,0-.48,1.15V97a1.51,1.51,0,0,0,.48,1.12,1.54,1.54,0,0,0,1.13.49m-55.11,0h7.74a1.5,1.5,0,0,0,1.16-.49,1.56,1.56,0,0,0,.45-1.12V73l7.29,13.4a3.31,3.31,0,0,0,.9,1.09,2.16,2.16,0,0,0,1.35.38h3.36A2.53,2.53,0,0,0,196,86.39L203.26,73V97a1.5,1.5,0,0,0,.49,1.16,1.68,1.68,0,0,0,1.19.45h7.67a1.68,1.68,0,0,0,1.19-.45,1.5,1.5,0,0,0,.49-1.16V55.35a1.46,1.46,0,0,0-.49-1.15,1.68,1.68,0,0,0-1.19-.45h-6.9a2.35,2.35,0,0,0-2.25,1.41l-11.35,20.2-11.35-20.2a2.37,2.37,0,0,0-2.26-1.41h-7a1.62,1.62,0,0,0-1.13.45,1.49,1.49,0,0,0-.48,1.15V97a1.51,1.51,0,0,0,.48,1.12,1.54,1.54,0,0,0,1.13.49"/></svg>