<svg id="Layer_1" data-name="Layer 1" xmlns="http://www.w3.org/2000/svg" viewBox="0 0 170.08 198.27"><defs><style>.cls-1{fill:#1a1b3a;}.cls-2{fill:#0180a1;}.cls-3{fill:#3eb7b1;}</style></defs><path class="cls-1" d="M151.82,55.74H130.61l-.41,0A45.37,45.37,0,0,0,85,14.33l-66.82-.07a4.11,4.11,0,0,0-4.1,4.1V59.84a4.11,4.11,0,0,0,4.1,4.1H39.41a3.11,3.11,0,0,0,.43,0,45.37,45.37,0,0,0,44.54,41.14l67.44,0a4.11,4.11,0,0,0,4.1-4.1V59.84a4.11,4.11,0,0,0-4.1-4.1M85,18.65h.66a41.2,41.2,0,0,1,39.09,52h0a5.08,5.08,0,0,1-3.56,1.47A5.13,5.13,0,0,1,116.07,67V64s0-.05,0-.07V52.71a9.36,9.36,0,1,0-18.72,0V64.19s0,0,0,.09V67a5.1,5.1,0,1,1-10.2,0V52.71a9.36,9.36,0,1,0-18.72,0V64.19s0,.06,0,.09V67a5.1,5.1,0,1,1-10.2,0V65.31s0,0,0-.08V52.71a9.38,9.38,0,0,0-9.35-9.4h0a9.51,9.51,0,0,0-1.7.15A41.19,41.19,0,0,1,85,18.65M83,101A41.18,41.18,0,0,1,45.23,49.17a5,5,0,0,1,3.68-1.61A5.13,5.13,0,0,1,54,52.71v1.65s0,.06,0,.08V67a9.36,9.36,0,1,0,18.72,0V56.86s0-.06,0-.09V52.71a5.11,5.11,0,1,1,10.21,0V63.93h0v3a9.36,9.36,0,1,0,18.71,0V56.86s0-.06,0-.09V52.71a5.11,5.11,0,1,1,10.21,0V53s0,.05,0,.08V67A9.4,9.4,0,0,0,120,76.29a9,9,0,0,0,2.83-.07A41.19,41.19,0,0,1,85,101c-.69,0-1.38,0-2.05,0"/><path class="cls-2" d="M122.8,76.22A41.19,41.19,0,0,1,85,101c-.69,0-1.38,0-2.05,0A41.21,41.21,0,0,1,45.22,49.17a5.05,5.05,0,0,1,3.69-1.61A5.13,5.13,0,0,1,54,52.71v1.65s0,.06,0,.08V67a9.36,9.36,0,1,0,18.72,0V56.86s0-.06,0-.09V52.71a5.11,5.11,0,1,1,10.21,0V63.93h0v3a9.36,9.36,0,1,0,18.71,0V56.86s0-.06,0-.09V52.71a5.11,5.11,0,1,1,10.21,0V53s0,.05,0,.08V67A9.4,9.4,0,0,0,120,76.29a9,9,0,0,0,2.83-.07"/><path class="cls-3" d="M126.19,59.84a41.1,41.1,0,0,1-1.43,10.77h0A5.09,5.09,0,0,1,116.07,67V64s0-.05,0-.08V52.71a9.36,9.36,0,1,0-18.72,0V64.19s0,0,0,.09V67a5.1,5.1,0,1,1-10.2,0V52.71a9.36,9.36,0,1,0-18.72,0V64.19s0,.06,0,.09V67a5.1,5.1,0,1,1-10.2,0V65.31s0,0,0-.08V52.71a9.4,9.4,0,0,0-9.36-9.41h0a9.51,9.51,0,0,0-1.7.16A41.19,41.19,0,0,1,85,18.65h.66a41.18,41.18,0,0,1,40.52,41.18"/><path class="cls-3" d="M39.68,59.68a45.33,45.33,0,0,1,26.7-41.32H19.18a1,1,0,0,0-1,1v39.5a1,1,0,0,0,1,1h20.5v-.16"/><path class="cls-2" d="M130.39,59.84a45.29,45.29,0,0,1-26.69,41.31h47.2a1,1,0,0,0,1-1V60.67a1,1,0,0,0-1-1H130.39v.16"/><path class="cls-1" d="M135.27,148.69V128.32h4.94a6.88,6.88,0,0,1,4.92,1.58,6.8,6.8,0,0,1,1.76,4.9c.07.92.1,2.14.1,3.66s0,2.75-.1,3.71q-.1,3.41-1.63,5a6.52,6.52,0,0,1-4.8,1.55Zm-7.67,7.12h13.11q7.32,0,11.15-3.33t4.08-10.21c0-.93.05-2.18.05-3.76s0-2.85-.05-3.81q-.19-6.58-4.2-10t-11.28-3.46H127.6a1.22,1.22,0,0,0-.86.34,1.18,1.18,0,0,0-.37.9v32.14a1.15,1.15,0,0,0,.37.86,1.17,1.17,0,0,0,.86.37m-36.91,0h5.94a1.16,1.16,0,0,0,.89-.37,1.2,1.2,0,0,0,.34-.86v-18l12.07,18.3a1.77,1.77,0,0,0,1.63.93h5.29a1.14,1.14,0,0,0,.89-.37,1.28,1.28,0,0,0,.35-.91V122.44a1.24,1.24,0,0,0-.35-.9,1.19,1.19,0,0,0-.89-.34h-5.93a1.24,1.24,0,0,0-.87.34,1.21,1.21,0,0,0-.37.9v18.69l-12.06-19a1.68,1.68,0,0,0-1.68-.94H90.69a1.22,1.22,0,0,0-.86.34,1.18,1.18,0,0,0-.37.9v32.14a1.15,1.15,0,0,0,.37.86,1.17,1.17,0,0,0,.86.37m-33.09,0H81.09a1.16,1.16,0,0,0,.89-.37,1.2,1.2,0,0,0,.34-.86v-4.65a1.18,1.18,0,0,0-1.23-1.24H64.92v-6.87H79.6a1.16,1.16,0,0,0,.89-.37,1.25,1.25,0,0,0,.35-.87v-4.3a1.28,1.28,0,0,0-.35-.91,1.16,1.16,0,0,0-.89-.37H64.92v-6.68H80.69a1.16,1.16,0,0,0,.89-.37,1.25,1.25,0,0,0,.35-.87v-4.64a1.24,1.24,0,0,0-.35-.9,1.21,1.21,0,0,0-.89-.34H57.6a1.24,1.24,0,0,0-.87.34,1.18,1.18,0,0,0-.37.9v32.14a1.15,1.15,0,0,0,.37.86,1.19,1.19,0,0,0,.87.37m-42.27,0h5.93a1.16,1.16,0,0,0,.89-.37,1.21,1.21,0,0,0,.35-.86V136l5.58,10.34a2.57,2.57,0,0,0,.7.84,1.66,1.66,0,0,0,1,.3h2.58a1.94,1.94,0,0,0,1.73-1.14L39.66,136v18.55a1.16,1.16,0,0,0,.37.89,1.27,1.27,0,0,0,.91.34h5.89a1.29,1.29,0,0,0,.91-.34,1.16,1.16,0,0,0,.37-.89V122.44a1.18,1.18,0,0,0-.37-.9,1.29,1.29,0,0,0-.91-.34h-5.3a1.81,1.81,0,0,0-1.73,1.09l-8.7,15.57-8.7-15.57a1.81,1.81,0,0,0-1.73-1.09H15.33a1.24,1.24,0,0,0-.87.34,1.18,1.18,0,0,0-.37.9v32.14a1.15,1.15,0,0,0,.37.86,1.19,1.19,0,0,0,.87.37"/><path class="cls-1" d="M18.44,176.93l2.69-5.68h1.79l-3.67,7.43v4.71H17.61v-4.64L14,171.25h1.8Z"/><path class="cls-1" d="M30.75,178.8a5.25,5.25,0,0,1-1.06,3.52,3.89,3.89,0,0,1-4.86.68,3.8,3.8,0,0,1-1.37-1.62,6.09,6.09,0,0,1-.5-2.58A5.25,5.25,0,0,1,24,175.29a3.56,3.56,0,0,1,2.86-1.23,3.65,3.65,0,0,1,2,.55,3.7,3.7,0,0,1,1.37,1.61A6,6,0,0,1,30.75,178.8Zm-6.11,0a4.7,4.7,0,0,0,.53,2.42,1.85,1.85,0,0,0,1.69.86,1.83,1.83,0,0,0,1.68-.86,4.6,4.6,0,0,0,.53-2.42,4.44,4.44,0,0,0-.54-2.4,1.85,1.85,0,0,0-1.69-.85,1.82,1.82,0,0,0-1.68.85A4.65,4.65,0,0,0,24.64,178.8Z"/><path class="cls-1" d="M40,174.23v9.16H38.64l-.23-1.21h-.07a2.45,2.45,0,0,1-1.11,1,3.48,3.48,0,0,1-1.49.33,3,3,0,0,1-2.24-.8,3.54,3.54,0,0,1-.77-2.53v-6h1.65V180c0,1.41.56,2.12,1.68,2.12a1.89,1.89,0,0,0,1.77-.83,4.72,4.72,0,0,0,.49-2.38v-4.64Z"/><path class="cls-1" d="M51.39,172.67a3,3,0,0,0-2.57,1.24,5.65,5.65,0,0,0-.93,3.43,5.92,5.92,0,0,0,.86,3.4A3,3,0,0,0,51.37,182a6.67,6.67,0,0,0,1.36-.14,11.7,11.7,0,0,0,1.33-.39V183a5.8,5.8,0,0,1-1.31.4,8.13,8.13,0,0,1-1.58.13,4.82,4.82,0,0,1-2.8-.77,4.66,4.66,0,0,1-1.66-2.18,8.89,8.89,0,0,1-.56-3.29,8.21,8.21,0,0,1,.61-3.24,5,5,0,0,1,1.78-2.21,5,5,0,0,1,2.86-.79,6.66,6.66,0,0,1,1.62.2,6,6,0,0,1,1.46.55l-.62,1.53a8.78,8.78,0,0,0-1.16-.48A4,4,0,0,0,51.39,172.67Z"/><path class="cls-1" d="M63.56,178.8a5.3,5.3,0,0,1-1.06,3.52,3.58,3.58,0,0,1-2.87,1.24,3.53,3.53,0,0,1-2-.56,3.8,3.8,0,0,1-1.37-1.62,6.09,6.09,0,0,1-.5-2.58,5.25,5.25,0,0,1,1-3.51,3.56,3.56,0,0,1,2.86-1.23,3.65,3.65,0,0,1,2,.55,3.77,3.77,0,0,1,1.37,1.61A6,6,0,0,1,63.56,178.8Zm-6.11,0a4.7,4.7,0,0,0,.53,2.42,2.08,2.08,0,0,0,3.37,0,4.7,4.7,0,0,0,.53-2.42,4.44,4.44,0,0,0-.54-2.4,1.85,1.85,0,0,0-1.69-.85,1.82,1.82,0,0,0-1.68.85A4.55,4.55,0,0,0,57.45,178.8Z"/><path class="cls-1" d="M68.47,183.56a2.87,2.87,0,0,1-2.41-1.19,7.27,7.27,0,0,1,0-7.1,2.89,2.89,0,0,1,2.43-1.21,2.79,2.79,0,0,1,1.54.39,3.38,3.38,0,0,1,1,1h.09c0-.15,0-.37-.08-.68s0-.58,0-.81v-3.44h1.63v12.92H71.33l-.28-1.22H71a3.12,3.12,0,0,1-1,1A2.72,2.72,0,0,1,68.47,183.56Zm.38-1.48a1.85,1.85,0,0,0,1.69-.74,4,4,0,0,0,.5-2.22v-.27a5.22,5.22,0,0,0-.47-2.45,1.79,1.79,0,0,0-1.73-.86,1.62,1.62,0,0,0-1.51.89,5,5,0,0,0-.51,2.44,4.6,4.6,0,0,0,.51,2.38A1.67,1.67,0,0,0,68.85,182.08Z"/><path class="cls-1" d="M78.42,174.06A3.18,3.18,0,0,1,81,175.17a4.55,4.55,0,0,1,.94,3v1H76.36a3.33,3.33,0,0,0,.67,2.16,2.23,2.23,0,0,0,1.79.75,5.63,5.63,0,0,0,1.43-.16,6.81,6.81,0,0,0,1.28-.49V183a6.4,6.4,0,0,1-1.26.46,6.58,6.58,0,0,1-1.51.15,4.11,4.11,0,0,1-2.13-.53,3.53,3.53,0,0,1-1.43-1.57,5.82,5.82,0,0,1-.52-2.57,6.56,6.56,0,0,1,.47-2.62,3.74,3.74,0,0,1,1.31-1.64A3.4,3.4,0,0,1,78.42,174.06Zm0,1.39a1.77,1.77,0,0,0-1.41.63,3.13,3.13,0,0,0-.62,1.79H80.3a3.17,3.17,0,0,0-.47-1.75A1.59,1.59,0,0,0,78.42,175.45Z"/><path class="cls-1" d="M83.73,182.39a1.23,1.23,0,0,1,.3-.94,1.16,1.16,0,0,1,1.49,0,1.2,1.2,0,0,1,.32.94,1.24,1.24,0,0,1-.32,1,1.1,1.1,0,0,1-1.49,0A1.27,1.27,0,0,1,83.73,182.39Z"/><path class="cls-1" d="M105.23,171.25l-2.89,12.14h-1.77l-1.94-7.5c-.07-.27-.15-.57-.23-.91s-.14-.66-.2-1-.11-.52-.13-.64q0,.18-.09.63c0,.29-.11.61-.19,1l-.22,1-1.91,7.44H93.89L91,171.25h1.71l1.62,7.18c.11.49.21,1,.3,1.54s.17,1,.22,1.43c0-.43.13-.92.23-1.48a14.47,14.47,0,0,1,.34-1.49l1.83-7.18h1.66l1.89,7.21c.13.46.24,1,.34,1.52s.18,1,.23,1.42c.05-.41.13-.88.23-1.43s.2-1.05.31-1.54l1.62-7.18Z"/><path class="cls-1" d="M109.62,174.06a3.2,3.2,0,0,1,2.57,1.11,4.6,4.6,0,0,1,.93,3v1h-5.57a3.39,3.39,0,0,0,.67,2.16,2.25,2.25,0,0,0,1.8.75,5.6,5.6,0,0,0,1.42-.16,6.81,6.81,0,0,0,1.28-.49V183a6.4,6.4,0,0,1-1.26.46,6.58,6.58,0,0,1-1.51.15,4.11,4.11,0,0,1-2.13-.53,3.53,3.53,0,0,1-1.43-1.57,5.83,5.83,0,0,1-.51-2.57,6.39,6.39,0,0,1,.47-2.62,3.66,3.66,0,0,1,1.3-1.64A3.43,3.43,0,0,1,109.62,174.06Zm0,1.39a1.74,1.74,0,0,0-1.41.63,3.13,3.13,0,0,0-.63,1.79h3.91a3.09,3.09,0,0,0-.47-1.75A1.59,1.59,0,0,0,109.62,175.45Z"/><path class="cls-1" d="M124,172.67a3,3,0,0,0-2.57,1.24,5.72,5.72,0,0,0-.92,3.43,5.92,5.92,0,0,0,.86,3.4A3,3,0,0,0,124,182a6.75,6.75,0,0,0,1.36-.14,11.7,11.7,0,0,0,1.33-.39V183a5.8,5.8,0,0,1-1.31.4,8.2,8.2,0,0,1-1.58.13,4.82,4.82,0,0,1-2.8-.77,4.66,4.66,0,0,1-1.66-2.18,8.89,8.89,0,0,1-.56-3.29,8,8,0,0,1,.61-3.24,5,5,0,0,1,1.78-2.21,5,5,0,0,1,2.86-.79,6.78,6.78,0,0,1,1.62.2,6,6,0,0,1,1.46.55l-.62,1.53a8.78,8.78,0,0,0-1.16-.48A4.1,4.1,0,0,0,124,172.67Z"/><path class="cls-1" d="M136,174.23v9.16h-1.31l-.23-1.21h-.08a2.4,2.4,0,0,1-1.11,1,3.48,3.48,0,0,1-1.49.33,2.93,2.93,0,0,1-2.23-.8,3.54,3.54,0,0,1-.77-2.53v-6h1.65V180c0,1.41.56,2.12,1.67,2.12a1.87,1.87,0,0,0,1.77-.83,4.71,4.71,0,0,0,.5-2.38v-4.64Z"/><path class="cls-1" d="M142.69,174.06l.46,0,.44.06-.17,1.69a2.82,2.82,0,0,0-.83-.12,2.12,2.12,0,0,0-1.16.34,2.41,2.41,0,0,0-.88,1,3.26,3.26,0,0,0-.33,1.53v4.83h-1.63v-9.16h1.29l.22,1.63h.06a4.53,4.53,0,0,1,1-1.27A2.27,2.27,0,0,1,142.69,174.06Z"/><path class="cls-1" d="M148.1,174.06a3.18,3.18,0,0,1,2.57,1.11,4.55,4.55,0,0,1,.94,3v1H146a3.33,3.33,0,0,0,.67,2.16,2.21,2.21,0,0,0,1.79.75,5.63,5.63,0,0,0,1.43-.16,6.81,6.81,0,0,0,1.28-.49V183a6.4,6.4,0,0,1-1.26.46,6.64,6.64,0,0,1-1.51.15,4.11,4.11,0,0,1-2.13-.53,3.53,3.53,0,0,1-1.43-1.57,5.69,5.69,0,0,1-.52-2.57,6.56,6.56,0,0,1,.47-2.62,3.67,3.67,0,0,1,1.31-1.64A3.4,3.4,0,0,1,148.1,174.06Zm0,1.39a1.77,1.77,0,0,0-1.41.63,3.13,3.13,0,0,0-.62,1.79H150a3.17,3.17,0,0,0-.47-1.75A1.59,1.59,0,0,0,148.1,175.45Z"/><path class="cls-1" d="M153.41,182.39a1.23,1.23,0,0,1,.3-.94,1.08,1.08,0,0,1,.75-.27,1.11,1.11,0,0,1,.74.27,1.2,1.2,0,0,1,.32.94,1.24,1.24,0,0,1-.32,1,1.08,1.08,0,0,1-.74.29,1.05,1.05,0,0,1-.75-.29A1.27,1.27,0,0,1,153.41,182.39Z"/></svg>